<?xml version="1.0" standalone="no"?>
<!DOCTYPE svg PUBLIC "-//W3C//DTD SVG 20010904//EN"
 "http://www.w3.org/TR/2001/REC-SVG-20010904/DTD/svg10.dtd">
<svg version="1.0" xmlns="http://www.w3.org/2000/svg"
 width="882.000000pt" height="283.000000pt" viewBox="0 0 882.000000 283.000000"
 preserveAspectRatio="xMidYMid meet">

<g transform="translate(0.000000,283.000000) scale(0.100000,-0.100000)"
fill="#000000" stroke="none">
<path d="M1235 1998 c-5 -14 -38 -128 -173 -593 -79 -271 -167 -571 -193 -658
l-8 -28 121 3 120 3 18 60 c10 33 39 130 64 215 25 85 82 279 126 430 44 151
99 338 122 415 22 77 43 146 46 153 3 9 -24 12 -117 12 -88 0 -123 -3 -126
-12z"/>
<path d="M1700 1905 c0 -94 2 -106 20 -117 19 -12 20 -24 20 -425 0 -402 -1
-413 -20 -425 -18 -11 -20 -24 -20 -115 l0 -103 155 0 155 0 0 99 c0 89 -2
101 -20 114 -20 14 -20 23 -18 238 l3 224 54 -138 54 -137 93 0 92 0 53 135
c28 74 55 135 58 135 3 0 5 -100 3 -222 -2 -176 -6 -224 -17 -232 -10 -8 -15
-40 -17 -114 l-3 -102 153 0 152 0 0 103 c0 91 -2 104 -20 115 -19 12 -20 23
-20 421 0 395 1 408 20 426 18 16 20 31 20 122 l0 104 -141 -3 -141 -3 -89
-225 c-49 -124 -91 -232 -94 -240 -9 -22 -15 -8 -114 244 l-87 221 -142 3
-142 3 0 -106z"/>
<path d="M3007 2003 c-4 -3 -7 -49 -7 -101 0 -83 2 -96 21 -111 l21 -17 -82
-410 c-66 -325 -87 -412 -101 -423 -16 -12 -19 -28 -19 -118 l0 -104 112 3
112 3 23 115 c12 63 25 125 28 138 5 21 9 22 134 22 l128 0 28 -140 29 -140
113 0 113 0 0 101 c0 89 -2 103 -20 117 -16 14 -35 92 -102 424 -79 387 -82
407 -65 425 14 16 17 39 17 121 l0 102 -238 0 c-131 0 -242 -3 -245 -7z m282
-573 c18 -91 34 -173 37 -182 5 -16 -3 -18 -75 -18 -45 0 -81 3 -81 8 0 31 75
371 80 365 4 -4 22 -82 39 -173z"/>
<path d="M3840 1905 c0 -94 2 -105 20 -115 20 -10 20 -21 20 -428 0 -406 -1
-418 -20 -430 -18 -11 -20 -23 -20 -112 l0 -100 318 0 317 0 -3 135 -3 135
-99 0 c-89 0 -101 -2 -112 -20 -11 -17 -24 -20 -80 -20 l-68 0 0 413 c0 401 1
413 20 425 18 11 20 23 20 117 l0 105 -155 0 -155 0 0 -105z"/>
<path d="M4690 1907 c0 -91 2 -104 20 -115 19 -12 20 -23 20 -430 0 -406 -1
-418 -20 -430 -18 -11 -20 -23 -20 -112 l0 -100 155 0 155 0 0 103 c0 91 -2
104 -20 115 -19 12 -20 23 -20 421 0 395 1 408 20 426 18 16 20 31 20 122 l0
103 -155 0 -155 0 0 -103z"/>
<path d="M5220 1905 c0 -94 2 -105 20 -115 20 -10 20 -21 20 -428 0 -406 -1
-418 -20 -430 -18 -11 -20 -23 -20 -112 l0 -100 155 0 155 0 0 103 c0 91 -2
104 -20 115 -15 9 -20 23 -20 56 0 39 8 53 82 146 l81 104 43 -50 44 -49 0
-97 c0 -87 -2 -99 -20 -110 -18 -11 -20 -24 -20 -115 l0 -103 155 0 155 0 0
100 c0 89 -2 101 -20 112 -18 12 -20 24 -20 152 l0 138 -85 105 -85 104 85
107 85 107 0 67 c0 57 3 69 20 78 18 10 20 21 20 115 l0 105 -155 0 -155 0 0
-105 c0 -94 2 -105 20 -115 42 -23 26 -58 -103 -218 l-122 -154 -3 179 c-3
169 -2 179 18 192 18 12 20 24 20 117 l0 104 -155 0 -155 0 0 -105z"/>
<path d="M6317 1922 l-87 -87 0 -475 0 -475 83 -83 82 -82 210 0 210 0 87 87
88 88 0 470 0 470 -87 87 -88 88 -205 0 -205 0 -88 -88z m420 -164 l23 -21 0
-375 c0 -335 -2 -377 -17 -394 -14 -15 -32 -18 -131 -18 -93 0 -119 3 -134 17
-17 15 -18 41 -18 396 0 340 2 382 17 399 14 15 32 18 126 18 100 0 113 -2
134 -22z"/>
<path d="M7170 1906 c0 -92 2 -105 20 -117 17 -12 37 -96 125 -533 58 -285
105 -522 105 -527 0 -5 73 -9 163 -9 l162 0 27 138 c152 768 182 907 205 930
21 21 23 32 23 122 l0 100 -115 0 c-111 0 -115 -1 -120 -22 -3 -13 -43 -212
-90 -443 -47 -231 -87 -424 -89 -430 -2 -5 -6 1 -10 15 -9 37 -176 863 -176
872 0 4 -52 8 -115 8 l-115 0 0 -104z"/>
<path d="M403 1622 l-222 -117 -1 -141 0 -141 188 -98 c103 -54 206 -109 230
-122 l42 -25 0 119 -1 118 -67 34 c-125 62 -192 102 -192 114 0 7 58 44 130
81 l130 69 0 113 c0 63 -3 114 -7 113 -5 0 -108 -53 -230 -117z"/>
<path d="M8180 1627 l0 -113 130 -69 c85 -45 130 -74 128 -83 -2 -8 -59 -45
-128 -82 l-125 -67 -3 -118 -3 -117 43 24 c24 14 127 69 231 123 l187 99 0
142 c0 129 -2 143 -18 148 -10 4 -111 56 -225 116 -114 61 -209 110 -212 110
-3 0 -5 -51 -5 -113z"/>
</g>
</svg>
